<svg width="13" height="13" viewBox="0 0 13 13" fill="none" xmlns="http://www.w3.org/2000/svg">
<g clip-path="url(#clip0_933_740)">
<path d="M3.79167 0H2.16667C1.59203 0 1.04093 0.228273 0.634602 0.634602C0.228273 1.04093 0 1.59203 0 2.16667L0 3.79167C0 4.3663 0.228273 4.9174 0.634602 5.32373C1.04093 5.73006 1.59203 5.95833 2.16667 5.95833H3.79167C4.3663 5.95833 4.9174 5.73006 5.32373 5.32373C5.73006 4.9174 5.95833 4.3663 5.95833 3.79167V2.16667C5.95833 1.59203 5.73006 1.04093 5.32373 0.634602C4.9174 0.228273 4.3663 0 3.79167 0V0ZM4.875 3.79167C4.875 4.07898 4.76086 4.35453 4.5577 4.5577C4.35453 4.76086 4.07898 4.875 3.79167 4.875H2.16667C1.87935 4.875 1.6038 4.76086 1.40063 4.5577C1.19747 4.35453 1.08333 4.07898 1.08333 3.79167V2.16667C1.08333 1.87935 1.19747 1.6038 1.40063 1.40063C1.6038 1.19747 1.87935 1.08333 2.16667 1.08333H3.79167C4.07898 1.08333 4.35453 1.19747 4.5577 1.40063C4.76086 1.6038 4.875 1.87935 4.875 2.16667V3.79167Z" fill="white"/>
<path d="M3.79167 7.04175H2.16667C1.59203 7.04175 1.04093 7.27002 0.634602 7.67635C0.228273 8.08268 0 8.63378 0 9.20841L0 10.8334C0 11.4081 0.228273 11.9592 0.634602 12.3655C1.04093 12.7718 1.59203 13.0001 2.16667 13.0001H3.79167C4.3663 13.0001 4.9174 12.7718 5.32373 12.3655C5.73006 11.9592 5.95833 11.4081 5.95833 10.8334V9.20841C5.95833 8.63378 5.73006 8.08268 5.32373 7.67635C4.9174 7.27002 4.3663 7.04175 3.79167 7.04175ZM4.875 10.8334C4.875 11.1207 4.76086 11.3963 4.5577 11.5994C4.35453 11.8026 4.07898 11.9167 3.79167 11.9167H2.16667C1.87935 11.9167 1.6038 11.8026 1.40063 11.5994C1.19747 11.3963 1.08333 11.1207 1.08333 10.8334V9.20841C1.08333 8.9211 1.19747 8.64555 1.40063 8.44238C1.6038 8.23922 1.87935 8.12508 2.16667 8.12508H3.79167C4.07898 8.12508 4.35453 8.23922 4.5577 8.44238C4.76086 8.64555 4.875 8.9211 4.875 9.20841V10.8334Z" fill="white"/>
<path d="M10.8346 7.04175H9.20964C8.635 7.04175 8.0839 7.27002 7.67757 7.67635C7.27124 8.08268 7.04297 8.63378 7.04297 9.20841V10.8334C7.04297 11.4081 7.27124 11.9592 7.67757 12.3655C8.0839 12.7718 8.635 13.0001 9.20964 13.0001H10.8346C11.4093 13.0001 11.9604 12.7718 12.3667 12.3655C12.773 11.9592 13.0013 11.4081 13.0013 10.8334V9.20841C13.0013 8.63378 12.773 8.08268 12.3667 7.67635C11.9604 7.27002 11.4093 7.04175 10.8346 7.04175ZM11.918 10.8334C11.918 11.1207 11.8038 11.3963 11.6007 11.5994C11.3975 11.8026 11.122 11.9167 10.8346 11.9167H9.20964C8.92232 11.9167 8.64677 11.8026 8.4436 11.5994C8.24044 11.3963 8.1263 11.1207 8.1263 10.8334V9.20841C8.1263 8.9211 8.24044 8.64555 8.4436 8.44238C8.64677 8.23922 8.92232 8.12508 9.20964 8.12508H10.8346C11.122 8.12508 11.3975 8.23922 11.6007 8.44238C11.8038 8.64555 11.918 8.9211 11.918 9.20841V10.8334Z" fill="white"/>
<path d="M7.58464 3.79175H9.20964V5.41675C9.20964 5.56041 9.2667 5.69818 9.36829 5.79976C9.46987 5.90135 9.60764 5.95842 9.7513 5.95842C9.89496 5.95842 10.0327 5.90135 10.1343 5.79976C10.2359 5.69818 10.293 5.56041 10.293 5.41675V3.79175H11.918C12.0616 3.79175 12.1994 3.73468 12.301 3.6331C12.4026 3.53152 12.4596 3.39374 12.4596 3.25008C12.4596 3.10642 12.4026 2.96865 12.301 2.86707C12.1994 2.76548 12.0616 2.70841 11.918 2.70841H10.293V1.08341C10.293 0.939756 10.2359 0.801981 10.1343 0.700399C10.0327 0.598816 9.89496 0.541748 9.7513 0.541748C9.60764 0.541748 9.46987 0.598816 9.36829 0.700399C9.2667 0.801981 9.20964 0.939756 9.20964 1.08341V2.70841H7.58464C7.44098 2.70841 7.3032 2.76548 7.20162 2.86707C7.10004 2.96865 7.04297 3.10642 7.04297 3.25008C7.04297 3.39374 7.10004 3.53152 7.20162 3.6331C7.3032 3.73468 7.44098 3.79175 7.58464 3.79175Z" fill="white"/>
</g>
<defs>
<clipPath id="clip0_933_740">
<rect width="13" height="13" fill="white"/>
</clipPath>
</defs>
</svg>
