<svg width="15" height="15" viewBox="0 0 15 15" fill="none" xmlns="http://www.w3.org/2000/svg">
<path d="M10.627 0H4.37695C3.54846 0.000992411 2.75418 0.330551 2.16834 0.916387C1.5825 1.50222 1.25295 2.2965 1.25195 3.125V12.5C1.25195 13.163 1.51535 13.7989 1.98419 14.2678C2.45303 14.7366 3.08891 15 3.75195 15H10.627C11.4555 14.999 12.2497 14.6694 12.8356 14.0836C13.4214 13.4978 13.751 12.7035 13.752 11.875V3.125C13.751 2.2965 13.4214 1.50222 12.8356 0.916387C12.2497 0.330551 11.4555 0.000992411 10.627 0V0ZM12.502 3.125V10H5.00195V1.25H10.627C11.1242 1.25 11.6011 1.44754 11.9528 1.79917C12.3044 2.15081 12.502 2.62772 12.502 3.125ZM3.75195 1.3575V10C3.31297 9.99962 2.88171 10.1154 2.50195 10.3356V3.125C2.50201 2.73731 2.62224 2.35916 2.8461 2.04263C3.06996 1.72609 3.38643 1.48673 3.75195 1.3575ZM10.627 13.75H3.75195C3.42043 13.75 3.10249 13.6183 2.86807 13.3839C2.63365 13.1495 2.50195 12.8315 2.50195 12.5C2.50195 12.1685 2.63365 11.8505 2.86807 11.6161C3.10249 11.3817 3.42043 11.25 3.75195 11.25H12.502V11.875C12.502 12.3723 12.3044 12.8492 11.9528 13.2008C11.6011 13.5525 11.1242 13.75 10.627 13.75Z" fill="#333333"/>
</svg>
