<svg width="8" height="8" viewBox="0 0 8 8" fill="none" xmlns="http://www.w3.org/2000/svg">
<g clip-path="url(#clip0_980_888)">
<path d="M4 0C3.20888 0 2.43552 0.234596 1.77772 0.674121C1.11992 1.11365 0.607234 1.73836 0.304484 2.46927C0.00173314 3.20017 -0.0774802 4.00444 0.0768607 4.78036C0.231202 5.55628 0.612164 6.26902 1.17157 6.82843C1.73098 7.38784 2.44372 7.7688 3.21964 7.92314C3.99556 8.07748 4.79983 7.99827 5.53074 7.69552C6.26164 7.39277 6.88635 6.88008 7.32588 6.22228C7.7654 5.56448 8 4.79112 8 4C7.99885 2.93949 7.57706 1.92274 6.82716 1.17284C6.07726 0.422943 5.06051 0.00114703 4 0V0ZM4.33333 3.95967C4.33337 4.01617 4.31904 4.07176 4.2917 4.1212C4.26435 4.17065 4.22488 4.21233 4.177 4.24233L2.897 5.04233C2.85979 5.06558 2.81837 5.08126 2.7751 5.0885C2.73183 5.09574 2.68756 5.09438 2.64481 5.0845C2.60207 5.07463 2.56168 5.05643 2.52597 5.03095C2.49026 5.00547 2.45991 4.97321 2.43667 4.936C2.41342 4.89879 2.39774 4.85737 2.3905 4.8141C2.38326 4.77083 2.38462 4.72656 2.3945 4.68381C2.40437 4.64106 2.42257 4.60068 2.44805 4.56497C2.47353 4.52926 2.50579 4.49891 2.543 4.47567L3.66667 3.775V2.33333C3.66667 2.24493 3.70179 2.16014 3.7643 2.09763C3.82681 2.03512 3.9116 2 4 2C4.08841 2 4.17319 2.03512 4.2357 2.09763C4.29822 2.16014 4.33333 2.24493 4.33333 2.33333V3.95967Z" fill="white"/>
</g>
<defs>
<clipPath id="clip0_980_888">
<rect width="8" height="8" fill="white"/>
</clipPath>
</defs>
</svg>
