<svg width="17" height="17" viewBox="0 0 17 17" fill="none" xmlns="http://www.w3.org/2000/svg">
<g clip-path="url(#clip0_993_673)">
<path d="M13.2121 0.658231L4.57608 9.29423C4.24624 9.62229 3.98475 10.0125 3.80674 10.4423C3.62874 10.8721 3.53776 11.333 3.53908 11.7982V12.7495C3.53908 12.9373 3.6137 13.1175 3.74654 13.2503C3.87938 13.3832 4.05955 13.4578 4.24741 13.4578H5.1987C5.66391 13.4591 6.12475 13.3682 6.55456 13.1901C6.98437 13.0121 7.3746 12.7507 7.70266 12.4208L16.3387 3.78481C16.7526 3.36985 16.9851 2.80765 16.9851 2.22152C16.9851 1.6354 16.7526 1.07319 16.3387 0.658231C15.9177 0.255823 15.3577 0.03125 14.7754 0.03125C14.193 0.03125 13.6331 0.255823 13.2121 0.658231ZM15.3371 2.78323L6.70108 11.4192C6.30167 11.8162 5.76183 12.0397 5.1987 12.0411H4.95574V11.7982C4.95722 11.2351 5.18069 10.6952 5.57766 10.2958L14.2137 1.65981C14.365 1.51528 14.5661 1.43463 14.7754 1.43463C14.9846 1.43463 15.1858 1.51528 15.3371 1.65981C15.4858 1.80893 15.5693 2.01093 15.5693 2.22152C15.5693 2.43212 15.4858 2.63412 15.3371 2.78323Z" fill="white"/>
<path d="M16.2917 6.36013C16.1038 6.36013 15.9236 6.43475 15.7908 6.56759C15.658 6.70043 15.5833 6.8806 15.5833 7.06846V10.625H12.75C12.1864 10.625 11.6459 10.8489 11.2474 11.2474C10.8489 11.6459 10.625 12.1864 10.625 12.75V15.5833H3.54167C2.97808 15.5833 2.43758 15.3595 2.03906 14.9609C1.64055 14.5624 1.41667 14.0219 1.41667 13.4583V3.54167C1.41667 2.97808 1.64055 2.43758 2.03906 2.03906C2.43758 1.64055 2.97808 1.41667 3.54167 1.41667H9.94642C10.1343 1.41667 10.3144 1.34204 10.4473 1.2092C10.5801 1.07636 10.6548 0.896195 10.6548 0.708333C10.6548 0.520472 10.5801 0.340304 10.4473 0.207466C10.3144 0.0746278 10.1343 0 9.94642 0L3.54167 0C2.6027 0.00112473 1.70252 0.374625 1.03857 1.03857C0.374625 1.70252 0.00112473 2.6027 0 3.54167L0 13.4583C0.00112473 14.3973 0.374625 15.2975 1.03857 15.9614C1.70252 16.6254 2.6027 16.9989 3.54167 17H11.5763C12.0416 17.0013 12.5026 16.9104 12.9325 16.7324C13.3624 16.5544 13.7528 16.2929 14.081 15.963L15.9623 14.0803C16.2922 13.7522 16.5538 13.362 16.7319 12.9322C16.91 12.5024 17.0011 12.0415 17 11.5763V7.06846C17 6.8806 16.9254 6.70043 16.7925 6.56759C16.6597 6.43475 16.4795 6.36013 16.2917 6.36013ZM13.0794 14.9614C12.7946 15.2455 12.4346 15.4421 12.0417 15.5281V12.75C12.0417 12.5621 12.1163 12.382 12.2491 12.2491C12.382 12.1163 12.5621 12.0417 12.75 12.0417H15.5302C15.4426 12.4337 15.2462 12.7932 14.9635 13.0787L13.0794 14.9614Z" fill="white"/>
</g>
<defs>
<clipPath id="clip0_993_673">
<rect width="17" height="17" fill="white"/>
</clipPath>
</defs>
</svg>
