<svg width="15" height="16" viewBox="0 0 15 16" fill="none" xmlns="http://www.w3.org/2000/svg">
<path d="M14.2682 6.73263L11.8438 4.30826C11.7259 4.19441 11.568 4.13141 11.4042 4.13284C11.2403 4.13426 11.0835 4.19999 10.9677 4.31587C10.8518 4.43175 10.786 4.58851 10.7846 4.75238C10.7832 4.91625 10.8462 5.07413 10.96 5.19201L13.3844 7.61638C13.4564 7.68984 13.5194 7.77167 13.5719 7.86013C13.5625 7.86013 13.555 7.85513 13.5457 7.85513L3.74316 7.87513C3.5774 7.87513 3.41843 7.94098 3.30122 8.05819C3.18401 8.1754 3.11816 8.33437 3.11816 8.50013C3.11816 8.66589 3.18401 8.82486 3.30122 8.94207C3.41843 9.05928 3.5774 9.12513 3.74316 9.12513L13.5419 9.10513C13.5594 9.10513 13.5738 9.09638 13.5907 9.09513C13.5352 9.20086 13.4649 9.29809 13.3819 9.38388L10.9575 11.8083C10.8978 11.8659 10.8502 11.9349 10.8175 12.0111C10.7847 12.0874 10.7675 12.1694 10.7668 12.2524C10.766 12.3354 10.7818 12.4177 10.8133 12.4945C10.8447 12.5713 10.8911 12.6411 10.9498 12.6998C11.0085 12.7584 11.0783 12.8048 11.1551 12.8363C11.2319 12.8677 11.3142 12.8835 11.3972 12.8828C11.4802 12.8821 11.5622 12.8648 11.6384 12.8321C11.7147 12.7993 11.7836 12.7517 11.8413 12.692L14.2657 10.2676C14.7343 9.79881 14.9976 9.16304 14.9976 8.50013C14.9976 7.83722 14.7343 7.20145 14.2657 6.73263H14.2682Z" fill="#333333"/>
<path d="M4.375 14.75H3.125C2.62772 14.75 2.15081 14.5525 1.79918 14.2008C1.44754 13.8492 1.25 13.3723 1.25 12.875V4.125C1.25 3.62772 1.44754 3.15081 1.79918 2.79917C2.15081 2.44754 2.62772 2.25 3.125 2.25H4.375C4.54076 2.25 4.69973 2.18415 4.81694 2.06694C4.93415 1.94973 5 1.79076 5 1.625C5 1.45924 4.93415 1.30027 4.81694 1.18306C4.69973 1.06585 4.54076 1 4.375 1H3.125C2.2965 1.00099 1.50222 1.33055 0.916387 1.91639C0.330551 2.50222 0.000992411 3.2965 0 4.125L0 12.875C0.000992411 13.7035 0.330551 14.4978 0.916387 15.0836C1.50222 15.6694 2.2965 15.999 3.125 16H4.375C4.54076 16 4.69973 15.9342 4.81694 15.8169C4.93415 15.6997 5 15.5408 5 15.375C5 15.2092 4.93415 15.0503 4.81694 14.9331C4.69973 14.8158 4.54076 14.75 4.375 14.75Z" fill="#333333"/>
</svg>
