<svg width="12" height="12" viewBox="0 0 12 12" fill="none" xmlns="http://www.w3.org/2000/svg">
<g clip-path="url(#clip0_980_852)">
<path d="M11.6377 4.70915C10.8622 3.44615 9.09821 1.32715 6.00221 1.32715C2.90622 1.32715 1.14222 3.44615 0.366722 4.70915C0.126987 5.0969 0 5.54377 0 5.99965C0 6.45552 0.126987 6.90239 0.366722 7.29015C1.14222 8.55314 2.90622 10.6721 6.00221 10.6721C9.09821 10.6721 10.8622 8.55314 11.6377 7.29015C11.8774 6.90239 12.0044 6.45552 12.0044 5.99965C12.0044 5.54377 11.8774 5.0969 11.6377 4.70915ZM10.7852 6.76665C10.1192 7.84964 8.61171 9.67214 6.00221 9.67214C3.39272 9.67214 1.88522 7.84964 1.21922 6.76665C1.07679 6.53617 1.00135 6.27058 1.00135 5.99965C1.00135 5.72871 1.07679 5.46312 1.21922 5.23265C1.88522 4.14965 3.39272 2.32715 6.00221 2.32715C8.61171 2.32715 10.1192 4.14765 10.7852 5.23265C10.9276 5.46312 11.0031 5.72871 11.0031 5.99965C11.0031 6.27058 10.9276 6.53617 10.7852 6.76665Z" fill="#666666"/>
<path d="M6 3.5C5.50555 3.5 5.0222 3.64662 4.61108 3.92133C4.19995 4.19603 3.87952 4.58648 3.6903 5.04329C3.50108 5.50011 3.45157 6.00277 3.54804 6.48773C3.6445 6.97268 3.8826 7.41814 4.23223 7.76777C4.58187 8.1174 5.02732 8.3555 5.51228 8.45196C5.99723 8.54843 6.49989 8.49892 6.95671 8.3097C7.41352 8.12048 7.80397 7.80005 8.07868 7.38893C8.35338 6.9778 8.5 6.49445 8.5 6C8.49921 5.3372 8.23556 4.70178 7.76689 4.23311C7.29822 3.76444 6.6628 3.50079 6 3.5ZM6 7.5C5.70333 7.5 5.41332 7.41203 5.16665 7.2472C4.91997 7.08238 4.72771 6.84811 4.61418 6.57402C4.50065 6.29994 4.47095 5.99834 4.52882 5.70736C4.5867 5.41639 4.72956 5.14912 4.93934 4.93934C5.14912 4.72956 5.41639 4.5867 5.70737 4.52882C5.99834 4.47094 6.29994 4.50065 6.57403 4.61418C6.84812 4.72771 7.08238 4.91997 7.24721 5.16664C7.41203 5.41332 7.5 5.70333 7.5 6C7.5 6.39782 7.34197 6.77936 7.06066 7.06066C6.77936 7.34196 6.39783 7.5 6 7.5Z" fill="#666666"/>
</g>
<defs>
<clipPath id="clip0_980_852">
<rect width="12" height="12" fill="white"/>
</clipPath>
</defs>
</svg>
