<svg width="15" height="16" viewBox="0 0 15 16" fill="none" xmlns="http://www.w3.org/2000/svg">
<path d="M5.54712 14.0005C5.97846 14.0005 6.32813 13.6274 6.32813 13.1672C6.32813 12.707 5.97846 12.334 5.54712 12.334C5.11578 12.334 4.76611 12.707 4.76611 13.1672C4.76611 13.6274 5.11578 14.0005 5.54712 14.0005Z" fill="white"/>
<path d="M9.45337 14.0005C9.88471 14.0005 10.2344 13.6274 10.2344 13.1672C10.2344 12.707 9.88471 12.334 9.45337 12.334C9.02203 12.334 8.67236 12.707 8.67236 13.1672C8.67236 13.6274 9.02203 14.0005 9.45337 14.0005Z" fill="white"/>
<path d="M10.5254 9.48456C10.4688 9.70461 10.346 9.89872 10.1759 10.0371C10.0058 10.1754 9.79782 10.2503 9.58393 10.2503H5.63125C5.59932 10.25 5.56864 10.2371 5.54517 10.214C5.52171 10.1909 5.50715 10.1593 5.50434 10.1253L5.17007 7.33396H6.91328C7.06863 7.33396 7.21762 7.26811 7.32747 7.15092C7.43732 7.03372 7.49903 6.87476 7.49903 6.70902C7.49903 6.54328 7.43732 6.38433 7.32747 6.26713C7.21762 6.14993 7.06863 6.08409 6.91328 6.08409H5.0205L4.91819 5.22543C4.88107 4.88814 4.72918 4.57713 4.49134 4.35142C4.25351 4.12571 3.94628 4.00101 3.62797 4.00098H3.39874C3.24339 4.00098 3.0944 4.06682 2.98455 4.18402C2.8747 4.30121 2.81299 4.46017 2.81299 4.62591C2.81299 4.79165 2.8747 4.95061 2.98455 5.0678C3.0944 5.185 3.24339 5.25084 3.39874 5.25084H3.62797C3.6599 5.25113 3.69059 5.26408 3.71405 5.28719C3.73751 5.3103 3.75207 5.3419 3.75488 5.37583L4.34064 10.2753C4.37768 10.6127 4.52959 10.9239 4.76751 11.1497C5.00544 11.3755 5.31281 11.5002 5.63125 11.5002H9.58393C10.0541 11.4999 10.5112 11.335 10.8851 11.0308C11.259 10.7266 11.529 10.2999 11.6536 9.81619L11.6598 9.79119C11.6837 9.69857 11.6873 9.60132 11.6702 9.507C11.6532 9.41267 11.616 9.32381 11.5615 9.24732C11.507 9.17083 11.4368 9.10876 11.3562 9.06595C11.2756 9.02313 11.1868 9.00072 11.0967 9.00044C10.9686 9.00042 10.844 9.04522 10.742 9.128C10.64 9.21078 10.5662 9.32696 10.5321 9.45873L10.5254 9.48456Z" fill="white"/>
<path d="M11.6011 5.25084H11.0154V4.62591C11.0154 4.46017 10.9537 4.30121 10.8438 4.18402C10.734 4.06682 10.585 4.00098 10.4296 4.00098C10.2743 4.00098 10.1253 4.06682 10.0154 4.18402C9.90559 4.30121 9.84387 4.46017 9.84387 4.62591V5.25084H9.25812C9.10277 5.25084 8.95378 5.31668 8.84393 5.43388C8.73408 5.55108 8.67236 5.71003 8.67236 5.87578C8.67236 6.04152 8.73408 6.20047 8.84393 6.31767C8.95378 6.43487 9.10277 6.50071 9.25812 6.50071H9.84387V7.12564C9.84387 7.29139 9.90559 7.45034 10.0154 7.56754C10.1253 7.68474 10.2743 7.75058 10.4296 7.75058C10.585 7.75058 10.734 7.68474 10.8438 7.56754C10.9537 7.45034 11.0154 7.29139 11.0154 7.12564V6.50071H11.6011C11.7565 6.50071 11.9055 6.43487 12.0153 6.31767C12.1252 6.20047 12.1869 6.04152 12.1869 5.87578C12.1869 5.71003 12.1252 5.55108 12.0153 5.43388C11.9055 5.31668 11.7565 5.25084 11.6011 5.25084Z" fill="white"/>
</svg>
