<svg width="12" height="15" viewBox="0 0 12 15" fill="none" xmlns="http://www.w3.org/2000/svg">
<path d="M5.9993 0.0107422C4.665 0.0123303 3.38581 0.543117 2.44236 1.48666C1.49891 2.4302 0.968252 3.70944 0.966797 5.04374C0.966797 7.68074 5.0498 11.2082 5.5168 11.6022L6.0003 12.0107L6.4838 11.6022C6.9498 11.2082 11.0338 7.68074 11.0338 5.04374C11.0323 3.70909 10.5014 2.42955 9.55753 1.48595C8.61365 0.542354 7.33394 0.011801 5.9993 0.0107422ZM5.9993 10.0322C4.4668 8.63624 2.4658 6.36824 2.4658 5.04374C2.4658 4.1066 2.83808 3.20784 3.50074 2.54518C4.16339 1.88252 5.06215 1.51024 5.9993 1.51024C6.93644 1.51024 7.8352 1.88252 8.49786 2.54518C9.16052 3.20784 9.5328 4.1066 9.5328 5.04374C9.5328 6.36574 7.5313 8.63474 5.9993 10.0322Z" fill="#333333"/>
<path d="M6.00045 6.49993C6.82805 6.49993 7.49895 5.82903 7.49895 5.00143C7.49895 4.17383 6.82805 3.50293 6.00045 3.50293C5.17285 3.50293 4.50195 4.17383 4.50195 5.00143C4.50195 5.82903 5.17285 6.49993 6.00045 6.49993Z" fill="#333333"/>
</svg>
