<svg width="17" height="16" viewBox="0 0 17 16" fill="none" xmlns="http://www.w3.org/2000/svg">
<path d="M15.336 0.666585C14.7846 0.107496 13.9805 -0.121733 13.2172 0.0625567L3.02472 2.20466C1.08912 2.49108 -0.247783 4.29238 0.0386366 6.22794C0.149986 6.98045 0.500596 7.67714 1.03859 8.21494L2.1313 9.30834C2.18246 9.35881 2.21105 9.42781 2.21065 9.49969V11.5158C2.21211 12.77 3.22851 13.7864 4.48275 13.7879H6.49885C6.57082 13.7879 6.63989 13.8164 6.69086 13.8672L7.78357 14.96C8.44429 15.625 9.34286 15.9993 10.2803 16C10.6673 15.9997 11.0517 15.9364 11.4184 15.8126C12.6838 15.3924 13.6033 14.2935 13.7939 12.9739L15.936 2.81337C16.1284 2.04203 15.9004 1.22636 15.336 0.666585ZM2.08133 5.21746C2.26252 4.65765 2.75148 4.25341 3.33539 4.18075C3.35895 4.17763 3.38226 4.17363 3.40539 4.16875L12.2872 2.30201L4.21077 10.3737V9.49966C4.21224 8.89669 3.9721 8.31826 3.54408 7.89358L2.45269 6.80088C2.03233 6.38973 1.88757 5.77264 2.08133 5.21746ZM11.8298 12.5965C11.8244 12.6198 11.8211 12.6432 11.8178 12.6665C11.702 13.511 10.9236 14.1018 10.0791 13.986C9.74541 13.9402 9.43586 13.7866 9.19767 13.5485L8.10561 12.4565C7.68072 12.0283 7.10207 11.7882 6.49888 11.7898H5.62484L13.6992 3.71342L11.8298 12.5965Z" fill="white"/>
</svg>
