<svg width="16" height="16" viewBox="0 0 16 16" fill="none" xmlns="http://www.w3.org/2000/svg">
<path d="M10.6208 3C10.1084 3.00467 9.60418 3.12245 9.14867 3.34389C8.69317 3.56533 8.299 3.88429 7.99776 4.2752C7.69651 3.88429 7.30234 3.56533 6.84684 3.34389C6.39133 3.12245 5.88714 3.00467 5.37468 3C4.44624 3.03496 3.57026 3.4151 2.93827 4.05731C2.30628 4.69951 1.96971 5.55153 2.00215 6.42706C2.00215 8.57139 4.33744 10.8669 6.299 12.4153C6.77532 12.793 7.37768 13 8 13C8.62233 13 9.22469 12.793 9.70101 12.4153C11.6606 10.8669 13.9979 8.57139 13.9979 6.42706C14.0303 5.55083 13.6931 4.69819 13.0601 4.05586C12.4272 3.41353 11.5501 3.03386 10.6208 3ZM8.73571 11.3323C8.52908 11.4964 8.26763 11.5863 7.99751 11.5863C7.72738 11.5863 7.46593 11.4964 7.2593 11.3323C4.87104 9.44428 3.50105 7.65656 3.50105 6.42706C3.46919 5.92641 3.64808 5.43412 3.99887 5.05708C4.34967 4.68003 4.84405 4.44867 5.37468 4.41322C5.9053 4.44867 6.39968 4.68003 6.75048 5.05708C7.10127 5.43412 7.28016 5.92641 7.2483 6.42706C7.2483 6.61446 7.32726 6.79419 7.46781 6.92671C7.60836 7.05922 7.79899 7.13367 7.99776 7.13367C8.19652 7.13367 8.38715 7.05922 8.5277 6.92671C8.66825 6.79419 8.74721 6.61446 8.74721 6.42706C8.71535 5.92641 8.89424 5.43412 9.24503 5.05708C9.59583 4.68003 10.0902 4.44867 10.6208 4.41322C11.1515 4.44867 11.6458 4.68003 11.9966 5.05708C12.3474 5.43412 12.5263 5.92641 12.4945 6.42706C12.4945 7.65656 11.1245 9.44428 8.73571 11.3323Z" fill="#E2001A"/>
</svg>
