<svg width="15" height="15" viewBox="0 0 15 15" fill="none" xmlns="http://www.w3.org/2000/svg">
<g clip-path="url(#clip0_1026_1021)">
<path d="M12.5 4.375H11.4137C11.7671 4.0635 12.0476 3.67805 12.2354 3.246C12.4231 2.81395 12.5134 2.34588 12.5 1.875C12.5 1.70924 12.4342 1.55027 12.3169 1.43306C12.1997 1.31585 12.0408 1.25 11.875 1.25C11.7092 1.25 11.5503 1.31585 11.4331 1.43306C11.3158 1.55027 11.25 1.70924 11.25 1.875C11.25 3.51375 9.76813 4.08125 8.64125 4.27563C9.05718 3.53816 9.30756 2.71898 9.375 1.875C9.375 1.37772 9.17746 0.900805 8.82583 0.549175C8.47419 0.197544 7.99728 0 7.5 0C7.00272 0 6.52581 0.197544 6.17417 0.549175C5.82254 0.900805 5.625 1.37772 5.625 1.875C5.69244 2.71898 5.94282 3.53816 6.35875 4.27563C5.23187 4.08125 3.75 3.51375 3.75 1.875C3.75 1.70924 3.68415 1.55027 3.56694 1.43306C3.44973 1.31585 3.29076 1.25 3.125 1.25C2.95924 1.25 2.80027 1.31585 2.68306 1.43306C2.56585 1.55027 2.5 1.70924 2.5 1.875C2.48657 2.34588 2.57692 2.81395 2.76465 3.246C2.95237 3.67805 3.23287 4.0635 3.58625 4.375H2.5C1.83696 4.375 1.20107 4.63839 0.732233 5.10723C0.263392 5.57607 0 6.21196 0 6.875L0 7.5C0 7.83152 0.131696 8.14946 0.366117 8.38388C0.600537 8.6183 0.918479 8.75 1.25 8.75V11.875C1.25099 12.7035 1.58055 13.4978 2.16639 14.0836C2.75222 14.6694 3.5465 14.999 4.375 15H10.625C11.4535 14.999 12.2478 14.6694 12.8336 14.0836C13.4194 13.4978 13.749 12.7035 13.75 11.875V8.75C14.0815 8.75 14.3995 8.6183 14.6339 8.38388C14.8683 8.14946 15 7.83152 15 7.5V6.875C15 6.21196 14.7366 5.57607 14.2678 5.10723C13.7989 4.63839 13.163 4.375 12.5 4.375ZM7.5 1.25C7.66576 1.25 7.82473 1.31585 7.94194 1.43306C8.05915 1.55027 8.125 1.70924 8.125 1.875C8.04955 2.53927 7.83671 3.18057 7.5 3.75813C7.16329 3.18057 6.95045 2.53927 6.875 1.875C6.875 1.70924 6.94085 1.55027 7.05806 1.43306C7.17527 1.31585 7.33424 1.25 7.5 1.25ZM1.25 6.875C1.25 6.54348 1.3817 6.22554 1.61612 5.99112C1.85054 5.7567 2.16848 5.625 2.5 5.625H6.875V7.5H1.25V6.875ZM2.5 11.875V8.75H6.875V13.75H4.375C3.87772 13.75 3.40081 13.5525 3.04917 13.2008C2.69754 12.8492 2.5 12.3723 2.5 11.875ZM12.5 11.875C12.5 12.3723 12.3025 12.8492 11.9508 13.2008C11.5992 13.5525 11.1223 13.75 10.625 13.75H8.125V8.75H12.5V11.875ZM8.125 7.5V5.625H12.5C12.8315 5.625 13.1495 5.7567 13.3839 5.99112C13.6183 6.22554 13.75 6.54348 13.75 6.875V7.5H8.125Z" fill="#333333"/>
</g>
<defs>
<clipPath id="clip0_1026_1021">
<rect width="15" height="15" fill="white"/>
</clipPath>
</defs>
</svg>
