<svg width="270" height="32" viewBox="0 0 270 32" fill="none" xmlns="http://www.w3.org/2000/svg">
<path d="M13.4051 11.8753C15.2973 10.817 16.2273 9.21348 16.2273 7.03274C16.2273 3.18437 13.4693 0.74707 9.17194 0.74707H0V23.5807H9.55678C13.8541 23.5807 16.548 21.0472 16.548 17.0385C16.548 15.435 16.1311 14.1522 15.1369 13.0939C14.6559 12.6129 14.3031 12.3563 13.4051 11.8753ZM4.45769 9.98315V4.72372H8.81917C10.6471 4.72372 11.7696 5.71788 11.7696 7.35343C11.7696 8.98899 10.6471 9.98315 8.81917 9.98315H4.45769ZM4.45769 19.6041V13.9919H9.1078C10.9358 13.9919 12.0903 15.0502 12.0903 16.7819C12.0903 18.5137 10.9358 19.6041 9.1078 19.6041H4.45769Z" fill="#E2001A"/>
<path d="M36.4698 23.5807V19.6041H25.8868V14.056H34.8984V10.0794H25.8868V4.72372H36.4698V0.74707H21.4291V23.5807H36.4698Z" fill="#E2001A"/>
<path d="M55.8549 4.72372V0.74707H39.4673V4.72372H45.4323V23.5807H49.89V4.72372H55.8549Z" fill="#E2001A"/>
<path d="M116.319 23.5807L107.981 0.74707H104.485L96.1794 23.5807H100.829L102.208 19.5399H110.322L111.669 23.5807H116.319ZM109.136 15.7878H103.459L106.345 7.48171L109.136 15.7878Z" fill="#E2001A"/>
<path d="M123.974 23.5807V0.74707H119.516V23.5807H123.974ZM137.475 23.5807L129.041 11.4584L136.706 0.74707H131.382L124.006 11.6187L132.024 23.5807H137.475Z" fill="#E2001A"/>
<path d="M158.77 23.5807L150.432 0.74707H146.936L138.63 23.5807H143.281L144.66 19.5399H152.773L154.12 23.5807H158.77ZM151.587 15.7878H145.91L148.796 7.48171L151.587 15.7878Z" fill="#E2001A"/>
<path d="M181.579 28.6477V19.6041H178.949V0.74707H165.191V6.58376C165.191 11.8432 164.358 16.6857 162.465 19.6041H160.317V28.6477H164.614V23.5807H177.282V28.6477H181.579ZM174.492 19.6041H167.436C169.008 16.4292 169.457 12.5487 169.457 8.0269V4.72372H174.492V19.6041Z" fill="#E2001A"/>
<path d="M200.503 23.5807V19.6041H189.92V14.056H198.931V10.0794H189.92V4.72372H200.503V0.74707H185.462V23.5807H200.503Z" fill="#E2001A"/>
<path d="M225.885 23.5807V0.74707H221.491L215.558 13.0939L209.593 0.74707H205.2V23.5807H209.658V10.2718L214.051 18.9306H217.066L221.427 10.2718V23.5807H225.885Z" fill="#E2001A"/>
<path d="M248.832 23.5807V0.74707H244.856L235.972 15.3709V0.74707H231.515V23.5807H235.491L244.375 8.92485V23.5807H248.832Z" fill="#E2001A"/>
<path d="M261.886 14.986H265.542V23.5807H270V0.74707H261.149C256.755 0.74707 253.644 3.50507 253.644 7.86655C253.644 10.7528 255.152 12.9977 257.557 14.0881L252.843 23.5807H258.134L261.886 14.986ZM265.542 11.0415H261.373C259.385 11.0415 258.07 9.66245 258.07 7.80241C258.07 5.9103 259.385 4.65958 261.373 4.65958H265.542V11.0415Z" fill="#E2001A"/>
<path fill-rule="evenodd" clip-rule="evenodd" d="M63.3632 0L76.5684 8.82692V15.0899L68.0793 9.43227V19.2969L76.5684 24.9544V31.1265L63.3632 22.2996V0Z" fill="#ED1C24"/>
<path fill-rule="evenodd" clip-rule="evenodd" d="M89.7735 0L76.5684 8.82692V15.0898L85.0574 9.43227V19.2969L76.5684 24.9544V31.1265L89.7735 22.2996V0Z" fill="#C1151C"/>
</svg>
