<svg width="22" height="23" viewBox="0 0 22 23" fill="none" xmlns="http://www.w3.org/2000/svg">
<path d="M6.93298 20.25C7.28931 21.067 7.87718 21.7624 8.62439 22.2509C9.3716 22.7394 10.2456 22.9996 11.1391 22.9996C12.0325 22.9996 12.9066 22.7394 13.6538 22.2509C14.401 21.7624 14.9889 21.067 15.3452 20.25H6.93298Z" fill="#333333"/>
<path fill-rule="evenodd" clip-rule="evenodd" d="M13.9664 1.59471C12.9099 1.17786 11.7746 0.973656 10.6252 1.00272C8.71635 1.05099 6.87819 1.73997 5.4026 2.96024C3.92702 4.18052 2.89859 5.86216 2.48061 7.73815L1.24157 12.8626C1.07689 13.5435 1.06797 14.2532 1.21548 14.9381C1.36299 15.623 1.66308 16.2652 2.09311 16.8163C2.52313 17.3674 3.07186 17.8129 3.69787 18.1193C4.32388 18.4257 5.01083 18.5848 5.70687 18.5849H16.2929C17.0105 18.5849 17.7182 18.4157 18.3592 18.0909C19.0002 17.766 19.5567 17.2945 19.9843 16.7142C20.4118 16.1339 20.6984 15.4608 20.8211 14.7489C20.9439 14.037 20.8993 13.306 20.6911 12.6145L19.1574 7.52388C18.636 7.76315 18.0558 7.89655 17.4444 7.89655C15.1739 7.89655 13.3333 6.05656 13.3333 3.78682C13.3333 2.98089 13.5654 2.22914 13.9664 1.59471Z" fill="#333333"/>
<path fill-rule="evenodd" clip-rule="evenodd" d="M17.4444 6.55369C18.9785 6.55369 20.2222 5.31045 20.2222 3.77685C20.2222 2.24324 18.9785 1 17.4444 1C15.9103 1 14.6666 2.24324 14.6666 3.77685C14.6666 5.31045 15.9103 6.55369 17.4444 6.55369Z" fill="#6FA7AC"/>
</svg>
