<svg width="29" height="29" viewBox="0 0 29 29" fill="none" xmlns="http://www.w3.org/2000/svg">
<path fill-rule="evenodd" clip-rule="evenodd" d="M0 8C0 3.58172 3.58172 0 8 0H21C25.4183 0 29 3.58172 29 8V21C29 25.4183 25.4183 29 21 29H8C3.58172 29 0 25.4183 0 21V8ZM14.5773 5C11.8213 5 9.58716 7.23416 9.58716 9.99006C9.58716 12.746 11.8213 14.9803 14.5773 14.9803C17.3333 14.9803 19.5675 12.746 19.5675 9.99006C19.5675 7.23416 17.3333 5 14.5773 5ZM14.5773 12.053C13.4381 12.053 12.5145 11.1293 12.5145 9.99013C12.5145 8.85091 13.4381 7.92735 14.5773 7.92735C15.7166 7.92735 16.6401 8.85091 16.6401 9.99013C16.6401 11.1293 15.7166 12.053 14.5773 12.053ZM19.3691 17.3891C19.3078 17.4397 18.1488 18.3832 16.2147 18.789L19.1341 21.7694C19.6475 22.2974 19.6482 23.1541 19.1356 23.683C18.623 24.2117 17.7914 24.2126 17.2779 23.6845L14.4436 20.8414L11.8693 23.6662C11.6116 23.9415 11.2678 24.08 10.9236 24.08C10.5953 24.08 10.2668 23.9542 10.0119 23.701C9.48965 23.1823 9.47451 22.3258 9.97809 21.7878L12.7491 18.8048C10.7609 18.4085 9.55401 17.4405 9.49186 17.3891C8.92591 16.9216 8.835 16.07 9.28888 15.487C9.74268 14.904 10.5693 14.8104 11.1354 15.2778C11.1474 15.2878 12.4097 16.2646 14.4435 16.266C16.4774 16.2646 17.7136 15.2878 17.7255 15.2778C18.2916 14.8104 19.1183 14.904 19.5721 15.487C20.026 16.07 19.9351 16.9216 19.3691 17.3891Z" fill="white"/>
</svg>
