<svg width="17" height="17" viewBox="0 0 17 17" fill="none" xmlns="http://www.w3.org/2000/svg">
<g clip-path="url(#clip0_980_901)">
<path d="M14.2644 17C14.0024 16.9993 13.7431 16.9466 13.5015 16.8451C13.26 16.7436 13.0409 16.5952 12.857 16.4085L8.50074 12.0778L4.14449 16.4114C3.86472 16.6952 3.50592 16.8882 3.11487 16.9651C2.72382 17.0421 2.31865 16.9994 1.9522 16.8428C1.5821 16.6939 1.2655 16.4369 1.04373 16.1053C0.821959 15.7737 0.70533 15.383 0.709072 14.9841V3.54167C0.709072 2.60236 1.08221 1.70152 1.7464 1.03733C2.41059 0.373139 3.31143 0 4.25074 0L12.7507 0C13.2158 0 13.6764 0.0916079 14.1061 0.269593C14.5358 0.447579 14.9262 0.708456 15.2551 1.03733C15.5839 1.3662 15.8448 1.75663 16.0228 2.18633C16.2008 2.61602 16.2924 3.07657 16.2924 3.54167V14.9841C16.2964 15.3826 16.1802 15.7732 15.9589 16.1047C15.7377 16.4363 15.4217 16.6934 15.0521 16.8428C14.8026 16.9471 14.5349 17.0005 14.2644 17ZM4.25074 1.41667C3.68715 1.41667 3.14665 1.64055 2.74814 2.03906C2.34962 2.43758 2.12574 2.97808 2.12574 3.54167V14.9841C2.12548 15.1021 2.16021 15.2176 2.22554 15.3159C2.29087 15.4142 2.38387 15.4909 2.49279 15.5364C2.60171 15.5819 2.72166 15.5941 2.8375 15.5714C2.95334 15.5487 3.05986 15.4923 3.14361 15.4091L8.0049 10.5775C8.13762 10.4456 8.31715 10.3716 8.50428 10.3716C8.69141 10.3716 8.87094 10.4456 9.00365 10.5775L13.8593 15.4077C13.943 15.4908 14.0496 15.5473 14.1654 15.57C14.2812 15.5926 14.4012 15.5805 14.5101 15.535C14.619 15.4895 14.712 15.4128 14.7774 15.3145C14.8427 15.2162 14.8774 15.1007 14.8772 14.9827V3.54167C14.8772 2.97808 14.6533 2.43758 14.2548 2.03906C13.8562 1.64055 13.3157 1.41667 12.7522 1.41667H4.25074Z" fill="white"/>
</g>
<defs>
<clipPath id="clip0_980_901">
<rect width="17" height="17" fill="white"/>
</clipPath>
</defs>
</svg>
