<svg width="17" height="17" viewBox="0 0 17 17" fill="none" xmlns="http://www.w3.org/2000/svg">
<g clip-path="url(#clip0_993_2434)">
<path d="M2.01808 16.6812C2.40487 16.8465 2.83249 16.8914 3.24517 16.8101C3.65784 16.7287 4.03642 16.5248 4.3315 16.2251L8.50004 12.0792L12.6686 16.2251C12.8629 16.4223 13.0945 16.579 13.3498 16.6861C13.6052 16.7932 13.8792 16.8486 14.1561 16.8491C14.4407 16.8483 14.7223 16.7913 14.9848 16.6812C15.3748 16.5234 15.7081 16.2517 15.9412 15.9016C16.1744 15.5514 16.2965 15.1391 16.2917 14.7185V3.54167C16.2906 2.6027 15.9171 1.70252 15.2531 1.03857C14.5892 0.374625 13.689 0.00112473 12.75 0L4.25004 0C3.31108 0.00112473 2.4109 0.374625 1.74695 1.03857C1.083 1.70252 0.7095 2.6027 0.708375 3.54167V14.7185C0.703804 15.1394 0.826367 15.552 1.06004 15.9022C1.29371 16.2524 1.62761 16.5239 2.01808 16.6812Z" fill="white"/>
</g>
<defs>
<clipPath id="clip0_993_2434">
<rect width="17" height="17" fill="white"/>
</clipPath>
</defs>
</svg>
