<svg width="20" height="21" viewBox="0 0 20 21" fill="none" xmlns="http://www.w3.org/2000/svg">
<path d="M9.99992 9.07422H9.16659C8.94557 9.07422 8.73361 9.16202 8.57733 9.3183C8.42105 9.47458 8.33325 9.68654 8.33325 9.90755C8.33325 10.1286 8.42105 10.3405 8.57733 10.4968C8.73361 10.6531 8.94557 10.7409 9.16659 10.7409H9.99992V15.7409C9.99992 15.9619 10.0877 16.1739 10.244 16.3301C10.4003 16.4864 10.6122 16.5742 10.8333 16.5742C11.0543 16.5742 11.2662 16.4864 11.4225 16.3301C11.5788 16.1739 11.6666 15.9619 11.6666 15.7409V10.7409C11.6666 10.2989 11.491 9.87494 11.1784 9.56237C10.8659 9.24981 10.4419 9.07422 9.99992 9.07422Z" fill="#E2001A"/>
<path d="M10 7.40625C10.6904 7.40625 11.25 6.84661 11.25 6.15625C11.25 5.46589 10.6904 4.90625 10 4.90625C9.30964 4.90625 8.75 5.46589 8.75 6.15625C8.75 6.84661 9.30964 7.40625 10 7.40625Z" fill="#E2001A"/>
</svg>
