<svg width="15" height="15" viewBox="0 0 15 15" fill="none" xmlns="http://www.w3.org/2000/svg">
<g clip-path="url(#clip0_1026_1012)">
<path d="M14.896 5.49616C14.7682 5.08922 14.5128 4.73423 14.1676 4.48368C13.8224 4.23313 13.4057 4.10033 12.9792 4.10491H10.2485L9.41916 1.51991C9.28873 1.11301 9.03245 0.758044 8.68726 0.506201C8.34208 0.254358 7.92583 0.118652 7.49853 0.118652C7.07124 0.118652 6.65499 0.254358 6.3098 0.506201C5.96462 0.758044 5.70833 1.11301 5.57791 1.51991L4.74853 4.10491H2.01791C1.59275 4.10552 1.17865 4.24046 0.834771 4.49048C0.490889 4.74049 0.234809 5.09278 0.10311 5.49703C-0.0285901 5.90128 -0.029173 6.3368 0.101444 6.7414C0.232061 7.146 0.487197 7.49898 0.830409 7.74991L3.05291 9.37491L2.20791 11.9918C2.07135 12.3977 2.06962 12.8368 2.20298 13.2437C2.33633 13.6506 2.59763 14.0036 2.94791 14.2499C3.29219 14.5041 3.7094 14.6403 4.13738 14.6382C4.56536 14.6361 4.98119 14.4957 5.32291 14.238L7.49853 12.6368L9.67478 14.2362C10.0184 14.4889 10.4334 14.6262 10.86 14.6283C11.2866 14.6304 11.7029 14.4972 12.049 14.2477C12.3951 13.9983 12.6532 13.6456 12.7862 13.2402C12.9192 12.8349 12.9202 12.3978 12.7892 11.9918L11.9442 9.37491L14.1692 7.74991C14.5163 7.50213 14.7744 7.14916 14.9053 6.74325C15.0362 6.33734 15.033 5.90007 14.896 5.49616ZM13.4317 6.74054L10.8417 8.63366C10.7353 8.71127 10.6561 8.82049 10.6155 8.94574C10.5749 9.071 10.5748 9.20589 10.6154 9.33116L11.5998 12.3749C11.6496 12.5293 11.6492 12.6955 11.5986 12.8496C11.548 13.0037 11.4498 13.1378 11.3182 13.2326C11.1866 13.3275 11.0283 13.3781 10.866 13.3773C10.7038 13.3764 10.5461 13.3242 10.4154 13.228L7.86853 11.353C7.76126 11.2742 7.63164 11.2317 7.49853 11.2317C7.36543 11.2317 7.23581 11.2742 7.12853 11.353L4.58166 13.228C4.45109 13.3255 4.29287 13.3788 4.12995 13.3803C3.96703 13.3818 3.80787 13.3313 3.67555 13.2363C3.54323 13.1412 3.44463 13.0065 3.39403 12.8516C3.34344 12.6967 3.34348 12.5298 3.39416 12.3749L4.38166 9.33116C4.42223 9.20589 4.4222 9.071 4.38157 8.94574C4.34094 8.82049 4.26179 8.71127 4.15541 8.63366L1.56541 6.74054C1.43497 6.64503 1.33805 6.51075 1.2885 6.35688C1.23894 6.203 1.23928 6.0374 1.28946 5.88372C1.33965 5.73005 1.43711 5.59616 1.56793 5.50119C1.69876 5.40622 1.85625 5.35502 2.01791 5.35491H5.20541C5.33773 5.35491 5.46664 5.31291 5.57356 5.23496C5.68049 5.15701 5.75992 5.04714 5.80041 4.92116L6.76916 1.90179C6.81889 1.74728 6.91635 1.61253 7.04754 1.51694C7.17872 1.42135 7.33684 1.36985 7.49916 1.36985C7.66147 1.36985 7.8196 1.42135 7.95078 1.51694C8.08196 1.61253 8.17943 1.74728 8.22916 1.90179L9.19791 4.92116C9.2384 5.04714 9.31783 5.15701 9.42475 5.23496C9.53168 5.31291 9.66059 5.35491 9.79291 5.35491H12.9804C13.1421 5.35502 13.2996 5.40622 13.4304 5.50119C13.5612 5.59616 13.6587 5.73005 13.7089 5.88372C13.759 6.0374 13.7594 6.203 13.7098 6.35688C13.6603 6.51075 13.5633 6.64503 13.4329 6.74054H13.4317Z" fill="#333333"/>
</g>
<defs>
<clipPath id="clip0_1026_1012">
<rect width="15" height="15" fill="white"/>
</clipPath>
</defs>
</svg>
