<svg width="12" height="12" viewBox="0 0 12 12" fill="none" xmlns="http://www.w3.org/2000/svg">
<g clip-path="url(#clip0_980_848)">
<path d="M11.9176 4.39722C11.8153 4.07167 11.611 3.78768 11.3348 3.58724C11.0587 3.3868 10.7253 3.28056 10.3841 3.28422H8.19961L7.53611 1.21622C7.43177 0.8907 7.22674 0.606728 6.95059 0.405254C6.67444 0.20378 6.34144 0.0952148 5.99961 0.0952148C5.65777 0.0952148 5.32477 0.20378 5.04862 0.405254C4.77247 0.606728 4.56745 0.8907 4.46311 1.21622L3.79961 3.28422H1.61511C1.27498 3.28471 0.943704 3.39266 0.668598 3.59267C0.393492 3.79268 0.188629 4.07452 0.0832689 4.39791C-0.0220908 4.72131 -0.0225571 5.06974 0.0819365 5.39342C0.18643 5.7171 0.390539 5.99948 0.665108 6.20022L2.44311 7.50022L1.76711 9.59372C1.65786 9.91842 1.65648 10.2697 1.76316 10.5953C1.86985 10.9208 2.07888 11.2032 2.35911 11.4002C2.63453 11.6036 2.9683 11.7126 3.31068 11.7109C3.65307 11.7091 3.98573 11.5969 4.25911 11.3907L5.99961 10.1097L7.74061 11.3892C8.01554 11.5914 8.34751 11.7013 8.68879 11.7029C9.03008 11.7046 9.36311 11.598 9.63999 11.3985C9.91688 11.1989 10.1234 10.9167 10.2298 10.5925C10.3361 10.2682 10.337 9.9185 10.2321 9.59372L9.55611 7.50022L11.3361 6.20022C11.6138 6.00199 11.8203 5.71962 11.925 5.39489C12.0298 5.07017 12.0272 4.72035 11.9176 4.39722ZM10.7461 5.39272L8.67411 6.90722C8.589 6.96931 8.52568 7.05668 8.49318 7.15689C8.46067 7.25709 8.46065 7.365 8.49311 7.46522L9.28061 9.90022C9.32046 10.0237 9.32012 10.1567 9.27964 10.28C9.23916 10.4033 9.16062 10.5106 9.05532 10.5864C8.95002 10.6623 8.82339 10.7028 8.69361 10.7021C8.56384 10.7014 8.43763 10.6596 8.33311 10.5827L6.29561 9.08272C6.20979 9.01968 6.10609 8.98569 5.99961 8.98569C5.89313 8.98569 5.78943 9.01968 5.70361 9.08272L3.66611 10.5827C3.56165 10.6607 3.43508 10.7033 3.30474 10.7045C3.1744 10.7057 3.04708 10.6653 2.94122 10.5893C2.83537 10.5132 2.75648 10.4055 2.71601 10.2816C2.67553 10.1577 2.67557 10.0241 2.71611 9.90022L3.50611 7.46522C3.53857 7.365 3.53854 7.25709 3.50604 7.15689C3.47354 7.05668 3.41021 6.96931 3.32511 6.90722L1.25311 5.39272C1.14876 5.31632 1.07123 5.20889 1.03158 5.08579C0.991932 4.96269 0.992202 4.83021 1.03235 4.70727C1.0725 4.58433 1.15047 4.47722 1.25513 4.40125C1.35979 4.32527 1.48578 4.28431 1.61511 4.28422H4.16511C4.27097 4.28422 4.37409 4.25062 4.45963 4.18826C4.54517 4.1259 4.60872 4.038 4.64111 3.93722L5.41611 1.52172C5.45589 1.39811 5.53386 1.29032 5.63881 1.21385C5.74375 1.13737 5.87026 1.09617 6.00011 1.09617C6.12996 1.09617 6.25646 1.13737 6.36141 1.21385C6.46635 1.29032 6.54433 1.39811 6.58411 1.52172L7.35911 3.93722C7.3915 4.038 7.45504 4.1259 7.54058 4.18826C7.62613 4.25062 7.72925 4.28422 7.83511 4.28422H10.3851C10.5144 4.28431 10.6404 4.32527 10.7451 4.40125C10.8497 4.47722 10.9277 4.58433 10.9679 4.70727C11.008 4.83021 11.0083 4.96269 10.9686 5.08579C10.929 5.20889 10.8515 5.31632 10.7471 5.39272H10.7461Z" fill="#666666"/>
</g>
<defs>
<clipPath id="clip0_980_848">
<rect width="12" height="12" fill="white"/>
</clipPath>
</defs>
</svg>
