<svg width="32" height="32" viewBox="0 0 32 32" fill="none" xmlns="http://www.w3.org/2000/svg">
<path fill-rule="evenodd" clip-rule="evenodd" d="M8 0C3.58172 0 0 3.58172 0 8V23.8545C0 28.2728 3.58172 31.8545 8 31.8545H23.8545C28.2728 31.8545 31.8545 28.2728 31.8545 23.8545V8C31.8545 3.58172 28.2728 0 23.8545 0H8ZM23.6018 22.9629H25.9979C26.6824 22.9629 27.0261 22.6206 26.8262 21.9442C26.6099 21.2706 25.8336 20.2944 24.804 19.1361C24.5208 18.8016 24.1662 18.454 23.8522 18.1463C23.5468 17.8469 23.2797 17.5851 23.1541 17.4096C22.7981 16.9523 22.8995 16.7496 23.1541 16.343C23.1541 16.343 26.0732 12.2314 26.3785 10.8349C26.5318 10.327 26.3785 9.95455 25.6542 9.95455H23.2582C22.6475 9.95455 22.3682 10.2763 22.2149 10.6323C22.2149 10.6323 20.9963 13.602 19.2698 15.5311C18.7112 16.0897 18.4579 16.2677 18.1526 16.2677C18.0006 16.2677 17.7802 16.0897 17.7802 15.5831V10.8363C17.7802 10.227 17.6036 9.95591 17.0956 9.95591H13.3291C12.9485 9.95591 12.7198 10.2393 12.7198 10.5063C12.7198 10.727 12.8458 10.8829 13.0065 11.0818C13.2667 11.4038 13.6177 11.8384 13.6728 12.8421V16.3704C13.6728 17.1426 13.5331 17.2836 13.2291 17.2836C12.4172 17.2836 10.4402 14.3002 9.26819 10.8869C9.03817 10.2243 8.80816 9.95591 8.19615 9.95591H5.79876C5.11419 9.95591 4.97727 10.2777 4.97727 10.6336C4.97727 11.2676 5.78918 14.4152 8.76024 18.5788C10.7414 21.4212 13.5317 22.9629 16.0701 22.9629C17.594 22.9629 17.7816 22.6192 17.7816 22.0305V19.8823C17.7816 19.1977 17.9253 19.0608 18.4086 19.0608C18.7633 19.0608 19.3725 19.2388 20.7951 20.6093C21.2785 21.0927 21.6419 21.4968 21.9379 21.8259C22.637 22.6033 22.9603 22.9629 23.6018 22.9629Z" fill="#4374AC"/>
</svg>
