<svg width="32" height="32" viewBox="0 0 32 32" fill="none" xmlns="http://www.w3.org/2000/svg">
<path fill-rule="evenodd" clip-rule="evenodd" d="M0.144531 8C0.144531 3.58172 3.72625 0 8.14453 0H23.9991C28.4174 0 31.9991 3.58172 31.9991 8V23.8545C31.9991 28.2728 28.4174 31.8545 23.9991 31.8545H8.14453C3.72625 31.8545 0.144531 28.2728 0.144531 23.8545V8ZM16.5312 3.9817C19.8862 3.9817 22.606 6.70148 22.606 10.0564C22.606 13.4114 19.8862 16.1314 16.5312 16.1314C13.1761 16.1314 10.4563 13.4114 10.4563 10.0564C10.4563 6.70148 13.1761 3.9817 16.5312 3.9817ZM16.5312 12.5677C17.918 12.5677 19.0424 11.4433 19.0424 10.0565C19.0424 8.66964 17.918 7.54534 16.5312 7.54534C15.1443 7.54534 14.02 8.66964 14.02 10.0565C14.02 11.4433 15.1443 12.5677 16.5312 12.5677ZM10.6977 19.0636C10.7724 19.1253 12.1833 20.2738 14.5378 20.7679L10.9838 24.3961C10.3588 25.0388 10.3581 26.0817 10.982 26.7255C11.606 27.3692 12.6184 27.3703 13.2435 26.7273L16.6939 23.2664L19.8277 26.7051C20.1415 27.0403 20.56 27.2089 20.979 27.2089C21.3786 27.2089 21.7785 27.0557 22.0888 26.7475C22.7246 26.1161 22.743 25.0733 22.13 24.4184L18.7566 20.787C21.1771 20.3046 22.6463 19.1262 22.7219 19.0636C23.4109 18.4945 23.5216 17.4578 22.969 16.7481C22.4166 16.0384 21.4102 15.9244 20.7211 16.4934C20.7065 16.5056 19.1699 17.6947 16.694 17.6964C14.218 17.6947 12.7131 16.5056 12.6986 16.4934C12.0094 15.9244 11.0031 16.0384 10.4506 16.7481C9.8981 17.4578 10.0088 18.4945 10.6977 19.0636Z" fill="#F7931E"/>
</svg>
