<svg width="29" height="29" viewBox="0 0 29 29" fill="none" xmlns="http://www.w3.org/2000/svg">
<path fill-rule="evenodd" clip-rule="evenodd" d="M8 0C3.58172 0 0 3.58172 0 8V21C0 25.4183 3.58172 29 8 29H21C25.4183 29 29 25.4183 29 21V8C29 3.58172 25.4183 0 21 0H8ZM20.8501 20.4881C21.3745 17.6644 22.4075 11.5453 22.6453 9.02463C22.7061 8.38681 22.5264 7.76626 21.7787 7.77689C21.1816 7.78752 20.2675 8.10776 15.8645 9.94947C14.3229 10.5953 11.2409 11.9307 6.62002 13.9558C5.86968 14.2561 5.47733 14.5497 5.44166 14.8368C5.38114 15.3215 5.98728 15.5132 6.81093 15.7738C6.92204 15.8089 7.0371 15.8453 7.15503 15.8839C7.96481 16.1496 9.05334 16.4592 9.61873 16.4712C10.1326 16.4818 10.7059 16.2692 11.3387 15.832C15.6571 12.9007 17.8857 11.4191 18.0257 11.3872C18.1235 11.3646 18.2595 11.3367 18.3533 11.4191C18.4471 11.5015 18.4365 11.6583 18.4273 11.7008C18.367 11.9567 16.0025 14.1684 14.7737 15.3178C14.3882 15.6784 14.1145 15.9344 14.0587 15.9928C13.9345 16.1226 13.8079 16.2453 13.6862 16.3633C12.9344 17.0922 12.3705 17.6389 13.7179 18.5321C14.3596 18.9579 14.8743 19.3105 15.3868 19.6615C15.9557 20.0512 16.5217 20.4389 17.2556 20.9226C17.4418 21.0453 17.6195 21.1727 17.7927 21.2969C18.4488 21.7672 19.0383 22.1898 19.7668 22.1225C20.1895 22.084 20.6281 21.684 20.8501 20.4881Z" fill="white"/>
</svg>
