<svg width="15" height="16" viewBox="0 0 15 16" fill="none" xmlns="http://www.w3.org/2000/svg">
<g clip-path="url(#clip0_1020_859)">
<path d="M14.375 7.875H13.125V6.625C13.125 6.45924 13.0592 6.30027 12.9419 6.18306C12.8247 6.06585 12.6658 6 12.5 6C12.3342 6 12.1753 6.06585 12.0581 6.18306C11.9408 6.30027 11.875 6.45924 11.875 6.625V7.875H10.625C10.4592 7.875 10.3003 7.94085 10.1831 8.05806C10.0658 8.17527 10 8.33424 10 8.5C10 8.66576 10.0658 8.82473 10.1831 8.94194C10.3003 9.05915 10.4592 9.125 10.625 9.125H11.875V10.375C11.875 10.5408 11.9408 10.6997 12.0581 10.8169C12.1753 10.9342 12.3342 11 12.5 11C12.6658 11 12.8247 10.9342 12.9419 10.8169C13.0592 10.6997 13.125 10.5408 13.125 10.375V9.125H14.375C14.5408 9.125 14.6997 9.05915 14.8169 8.94194C14.9342 8.82473 15 8.66576 15 8.5C15 8.33424 14.9342 8.17527 14.8169 8.05806C14.6997 7.94085 14.5408 7.875 14.375 7.875Z" fill="#333333"/>
<path d="M5.625 8.5C6.36668 8.5 7.0917 8.28007 7.70839 7.86801C8.32507 7.45596 8.80572 6.87029 9.08955 6.18506C9.37338 5.49984 9.44764 4.74584 9.30295 4.01841C9.15825 3.29098 8.8011 2.6228 8.27665 2.09835C7.7522 1.5739 7.08402 1.21675 6.35659 1.07206C5.62916 0.927362 4.87516 1.00162 4.18994 1.28545C3.50471 1.56928 2.91904 2.04993 2.50699 2.66661C2.09493 3.2833 1.875 4.00832 1.875 4.75C1.87599 5.74426 2.2714 6.69751 2.97445 7.40056C3.67749 8.1036 4.63074 8.49901 5.625 8.5ZM5.625 2.25C6.11945 2.25 6.6028 2.39662 7.01393 2.67133C7.42505 2.94603 7.74548 3.33648 7.9347 3.79329C8.12392 4.25011 8.17343 4.75277 8.07696 5.23773C7.9805 5.72268 7.7424 6.16814 7.39277 6.51777C7.04314 6.8674 6.59768 7.1055 6.11273 7.20197C5.62777 7.29843 5.12511 7.24892 4.66829 7.0597C4.21148 6.87048 3.82103 6.55005 3.54633 6.13893C3.27162 5.7278 3.125 5.24445 3.125 4.75C3.125 4.08696 3.38839 3.45108 3.85723 2.98223C4.32607 2.51339 4.96196 2.25 5.625 2.25Z" fill="#333333"/>
<path d="M5.625 9.75C4.13367 9.75165 2.70389 10.3448 1.64935 11.3994C0.594818 12.4539 0.00165428 13.8837 0 15.375C0 15.5408 0.065848 15.6997 0.183058 15.8169C0.300269 15.9342 0.45924 16 0.625 16C0.79076 16 0.949732 15.9342 1.06694 15.8169C1.18415 15.6997 1.25 15.5408 1.25 15.375C1.25 14.2147 1.71094 13.1019 2.53141 12.2814C3.35188 11.4609 4.46468 11 5.625 11C6.78532 11 7.89812 11.4609 8.71859 12.2814C9.53906 13.1019 10 14.2147 10 15.375C10 15.5408 10.0658 15.6997 10.1831 15.8169C10.3003 15.9342 10.4592 16 10.625 16C10.7908 16 10.9497 15.9342 11.0669 15.8169C11.1842 15.6997 11.25 15.5408 11.25 15.375C11.2483 13.8837 10.6552 12.4539 9.60065 11.3994C8.54611 10.3448 7.11633 9.75165 5.625 9.75Z" fill="#333333"/>
</g>
<defs>
<clipPath id="clip0_1020_859">
<rect width="15" height="16" fill="white"/>
</clipPath>
</defs>
</svg>
