<svg width="29" height="29" viewBox="0 0 29 29" fill="none" xmlns="http://www.w3.org/2000/svg">
<path fill-rule="evenodd" clip-rule="evenodd" d="M8 0C3.58172 0 0 3.58172 0 8V21C0 25.4183 3.58172 29 8 29H21C25.4183 29 29 25.4183 29 21V8C29 3.58172 25.4183 0 21 0H8ZM21.4868 20.9051H23.6681C24.2914 20.9051 24.6042 20.5935 24.4222 19.9777C24.2253 19.3645 23.5186 18.4758 22.5812 17.4213C22.3234 17.1167 22.0006 16.8003 21.7148 16.5201C21.4367 16.2476 21.1936 16.0093 21.0792 15.8495C20.7552 15.4332 20.8474 15.2487 21.0792 14.8785C21.0792 14.8785 23.7367 11.1354 24.0147 9.86397C24.1543 9.40154 24.0147 9.0625 23.3553 9.0625H21.174C20.6181 9.0625 20.3638 9.35542 20.2242 9.6795C20.2242 9.6795 19.1148 12.3831 17.543 14.1393C17.0345 14.6479 16.8039 14.8099 16.5259 14.8099C16.3876 14.8099 16.1869 14.6479 16.1869 14.1867V9.86522C16.1869 9.31054 16.0261 9.06375 15.5637 9.06375H12.1347C11.7881 9.06375 11.58 9.32176 11.58 9.56482C11.58 9.7657 11.6947 9.90768 11.841 10.0888C12.0778 10.3819 12.3974 10.7775 12.4475 11.6913V14.9034C12.4475 15.6064 12.3204 15.7348 12.0437 15.7348C11.3045 15.7348 9.50462 13.0188 8.43765 9.91134C8.22825 9.30805 8.01884 9.06375 7.46168 9.06375H5.27913C4.6559 9.06375 4.53125 9.35666 4.53125 9.68074C4.53125 10.2579 5.2704 13.1235 7.97522 16.9139C9.77884 19.5016 12.3191 20.9051 14.6301 20.9051C16.0174 20.9051 16.1881 20.5922 16.1881 20.0563V18.1006C16.1881 17.4773 16.319 17.3527 16.759 17.3527C17.0818 17.3527 17.6365 17.5147 18.9316 18.7624C19.3717 19.2025 19.7025 19.5704 19.972 19.8701C20.6084 20.5778 20.9027 20.9051 21.4868 20.9051Z" fill="white"/>
</svg>
